<svg xmlns="http://www.w3.org/2000/svg" width="81.038" height="80.923" viewBox="0 0 81.038 80.923">
  <g id="Group_474" data-name="Group 474" transform="translate(-2493.136 -4688.137)">
    <path id="Path_435" data-name="Path 435" d="M2574.3,4716.049a41.319,41.319,0,0,0-2.863-11.237,22.151,22.151,0,0,0-6.131-8.44,26.827,26.827,0,0,0-10.578-5.147,65.943,65.943,0,0,0-14.365-1.9,125.964,125.964,0,0,0-16.119.308,54.31,54.31,0,0,0-11.266,2.031,25.911,25.911,0,0,0-8.865,4.556,23.292,23.292,0,0,0-7.276,11.107,48.028,48.028,0,0,0-2.2,11.233c-.305,3.7-.406,7.412-.6,11.122a126.8,126.8,0,0,0,.967,14.158,38.194,38.194,0,0,0,3.749,12.684,21.115,21.115,0,0,0,4.921,6.227,27.371,27.371,0,0,0,11.8,5.6,69.493,69.493,0,0,0,13.288,1.652,100.807,100.807,0,0,0,18.585-.743,48.354,48.354,0,0,0,11.489-2.8,22.972,22.972,0,0,0,10.118-7.572,27.22,27.22,0,0,0,4.47-10.058,58.748,58.748,0,0,0,1.453-11.085,126.784,126.784,0,0,0-.582-21.7" transform="translate(-0.907 -1.066)" fill="#231f20"/>
    <path id="Path_436" data-name="Path 436" d="M2553.328,4795.586a3.667,3.667,0,0,1-1.027,2.256,7.2,7.2,0,0,1-3.113,1.994,11.721,11.721,0,0,1-4.05.765,7.912,7.912,0,0,1-3.113-.5,43.152,43.152,0,0,1-3.3,4.493,7.094,7.094,0,0,1-5.2,2.175,3.655,3.655,0,0,1-2.569-.8,2.688,2.688,0,0,1-.856-2.064,4.853,4.853,0,0,1,1.41-3.3,5.05,5.05,0,0,1,3.908-1.712,2.881,2.881,0,0,1,1.632.443,1.509,1.509,0,0,1,.665,1.349,2.5,2.5,0,0,1-.685,1.45q-.685.847-.846.847c-.027,0-.041-.026-.041-.08a.269.269,0,0,1,.06-.162,3.162,3.162,0,0,0,.645-1.743,1.549,1.549,0,0,0-.493-1.228,1.782,1.782,0,0,0-1.219-.433,3.837,3.837,0,0,0-2.991,1.541,4.829,4.829,0,0,0-1.3,3.113,2.19,2.19,0,0,0,.634,1.631,2.705,2.705,0,0,0,1.965.624,5.973,5.973,0,0,0,4.251-1.672,11.932,11.932,0,0,0,2.076-2.821l1.753-3.162a45.953,45.953,0,0,0,3-6.165h-.363a25.666,25.666,0,0,0-5.459.595,10.241,10.241,0,0,0-4.151,1.7,1.239,1.239,0,0,0-.6.905.808.808,0,0,0,.473.715,2.2,2.2,0,0,0,1.118.272,6.52,6.52,0,0,0,1.6-.252,3.548,3.548,0,0,0,1.44-.674.616.616,0,0,1,.282-.162q.161,0,.061.162a4.4,4.4,0,0,1-2.2,1.268,6.409,6.409,0,0,1-1.792.263,2.48,2.48,0,0,1-1.451-.393,1.233,1.233,0,0,1-.564-1.067,1.926,1.926,0,0,1,.725-1.36q1.37-1.329,4.9-1.974a33.158,33.158,0,0,1,5.742-.442h.544a1.284,1.284,0,0,1,.806-.384q.363,0,.363.282a.615.615,0,0,1-.02.141,15.936,15.936,0,0,1,5.056,1.048q2.3.964,2.3,2.517m-.947-.2q0-1.269-2.055-2.074a14.442,14.442,0,0,0-4.493-.847l-.644,2.015a35.123,35.123,0,0,1-2.942,5.277,3.661,3.661,0,0,0,.685.223,7.836,7.836,0,0,0,1.249.14,11.807,11.807,0,0,0,3.525-.634,8.893,8.893,0,0,0,3.335-1.853,3.31,3.31,0,0,0,1.339-2.248" transform="translate(-26.562 -73.922)" fill="#fff"/>
    <path id="Path_437" data-name="Path 437" d="M2604.772,4816.618q-1.51,0-1.51-1.673a4.639,4.639,0,0,1,.442-1.853,8.259,8.259,0,0,1,.967-1.692,1.449,1.449,0,0,1-.262.02q-.483,0-.806-.684l-1.491,1.931c-.833,1.037-1.317,1.553-1.451,1.553-.067,0-.1-.026-.1-.08a1.087,1.087,0,0,1,.342-.585,18.869,18.869,0,0,0,2.478-3.444q.463-1.752,1.168-1.752c.309,0,.463.135.463.4a1.832,1.832,0,0,1-.5,1.027l-.483.645q0,.423.625.423a1.611,1.611,0,0,0,.805-.262l.523-.323a.617.617,0,0,1,.2-.02.49.49,0,0,1,.341.2.357.357,0,0,1,.122.362l-1.391,1.752a4.912,4.912,0,0,0-1.289,2.609q0,.958.887.958a4.174,4.174,0,0,0,2.276-.987,9.771,9.771,0,0,0,1.471-1.31,4.451,4.451,0,0,1,.686-.727c.093,0,.14.051.14.152a.575.575,0,0,1-.181.353l-.645.724a11.731,11.731,0,0,1-1.209,1.089,4.838,4.838,0,0,1-2.62,1.189" transform="translate(-76.698 -85.848)" fill="#fff"/>
    <path id="Path_438" data-name="Path 438" d="M2627.813,4821.2a1.253,1.253,0,0,1-.4-.061q-1.288-.363-1.289-1.451a5.157,5.157,0,0,1,1.773-3.263q1.773-1.854,3.183-1.854a1.115,1.115,0,0,1,.755.251.785.785,0,0,1,.292.615q0,1.128-1.7,2.155a5.815,5.815,0,0,1-2.77,1.028.938.938,0,0,1-.282-.039,2.32,2.32,0,0,0-.3,1.147q0,1.047,1,1.047a4.567,4.567,0,0,0,2.59-1.351,12.913,12.913,0,0,0,2.095-2.1c.121-.16.224-.24.312-.24s.131.041.131.121a.684.684,0,0,1-.162.343,12.394,12.394,0,0,1-2.619,2.538,4.769,4.769,0,0,1-2.6,1.108m3.808-5.8c0-.162-.17-.241-.513-.241a2.747,2.747,0,0,0-1.46.785,9.029,9.029,0,0,0-1.976,2.2.816.816,0,0,0,.263.04,4.217,4.217,0,0,0,2.045-.815,3.607,3.607,0,0,0,1.6-1.783.505.505,0,0,0,.04-.181" transform="translate(-94.883 -90.27)" fill="#fff"/>
    <path id="Path_439" data-name="Path 439" d="M2649.036,4816.314a2.794,2.794,0,0,1-1.441.341,1.577,1.577,0,0,1-1.309-.562,4.905,4.905,0,0,1-.775-1.793c-.242.242-.41.362-.5.362-.068,0-.1-.046-.1-.142a.327.327,0,0,1,.1-.241,30.153,30.153,0,0,1,2.255-2.377l2.539-2.378c.726-.684,1.155-1.027,1.29-1.027.429,0,.645.161.645.484a.728.728,0,0,1-.192.472c-.127.156-.221.275-.281.364s-.125.17-.191.252a9.57,9.57,0,0,0-.736,2.579q-.373,1.954-.574,2.719,1.673-.021,3.445-2.176c.133-.134.234-.2.3-.2s.1.043.1.13a.643.643,0,0,1-.181.353,8.155,8.155,0,0,1-2.176,1.915,6.6,6.6,0,0,1-1.571.5Zm-2.72-2.236a1.477,1.477,0,0,0,.454,1.118,1.559,1.559,0,0,0,1.883.211c.269-.146.534-.767.8-1.854a17.2,17.2,0,0,0,.473-2.881l.081-.686a19.834,19.834,0,0,0-2.367,2.137q-1.259,1.31-1.3,1.731a1.408,1.408,0,0,0-.02.223" transform="translate(-108.249 -85.946)" fill="#fff"/>
    <path id="Path_440" data-name="Path 440" d="M2672.578,4821.2a1.244,1.244,0,0,1-.4-.061q-1.29-.363-1.289-1.451a5.157,5.157,0,0,1,1.772-3.263q1.774-1.854,3.183-1.854a1.114,1.114,0,0,1,.756.251.863.863,0,0,1,.292.686,1.867,1.867,0,0,1-.262.905.845.845,0,0,1-.786.474q-.524,0-.524-.322a1.549,1.549,0,0,1,.273-.676,4.167,4.167,0,0,0,.271-.481c0-.022-.021-.032-.061-.032a3.567,3.567,0,0,0-1.541.807,6.794,6.794,0,0,0-1.34,1.248l-.786,1.15a2.277,2.277,0,0,0-.291.765,3.542,3.542,0,0,0-.091.665.813.813,0,0,0,.25.5.913.913,0,0,0,.716.282,4.425,4.425,0,0,0,2.5-1.18,12.837,12.837,0,0,0,2.3-2.245.31.31,0,0,1,.242-.122c.094,0,.141.028.141.08a.349.349,0,0,1-.1.2,11.979,11.979,0,0,1-2.649,2.568,4.8,4.8,0,0,1-2.568,1.1" transform="translate(-126.734 -90.27)" fill="#fff"/>
    <path id="Path_441" data-name="Path 441" d="M2695.968,4815.277a4.97,4.97,0,0,1-1.35,2.357q-1.592,1.954-2.72,1.954h-.322a.918.918,0,0,1-.826-.545,1.549,1.549,0,0,1-.242-.844q0-1.211,1.763-3.4t2.851-2.186q1.027,0,1.026,1.089a3.386,3.386,0,0,1-.1.724c.014.041.142.061.383.061a2.8,2.8,0,0,0,1.108-.382c-.014.229-.543.557-1.591.987a.761.761,0,0,1,.02.181m-1.31-1.047q-.684,0-1.944,1.611a4.842,4.842,0,0,0-1.259,2.376c0,.512.161.766.484.766q.866,0,2.2-1.57a4.651,4.651,0,0,0,1.33-2.258,2.9,2.9,0,0,1-.806-.925" transform="translate(-140.695 -88.878)" fill="#fff"/>
    <path id="Path_442" data-name="Path 442" d="M2712.234,4813.977q.544,0,.543.423a.544.544,0,0,1-.059.242,14.28,14.28,0,0,0-2.177,3.808q4.695-4.693,5.7-4.694a.923.923,0,0,1,.182-.021c.375,0,.564.169.564.5a.527.527,0,0,1-.041.2q-.041.1-.806,1.088a18.682,18.682,0,0,0-1.5,2.014,3.226,3.226,0,0,0-.614,1.612q0,.644.282.645.886,0,3.081-2.437a1.62,1.62,0,0,0,.142-.182c.2-.242.323-.363.363-.363s.06.068.06.2a.918.918,0,0,1-.283.524q-2.5,2.84-3.545,2.84-.987,0-.987-1.088a5.191,5.191,0,0,1,.805-2.5l1.29-2.1a15.676,15.676,0,0,0-2.438,2.207q-1.067,1.2-1.943,2.326t-1.018,1.129a.541.541,0,0,1-.473-.253,1.079,1.079,0,0,1-.171-.623,2.789,2.789,0,0,1,.262-1q.262-.623.665-1.51l-1.208,1.269c-.3.3-.48.443-.554.443s-.111-.043-.111-.13a.452.452,0,0,1,.161-.293,16.79,16.79,0,0,0,1.29-1.43q.523-.686,2.156-2.619a.5.5,0,0,1,.382-.242" transform="translate(-153.316 -89.673)" fill="#fff"/>
    <path id="Path_443" data-name="Path 443" d="M2623.431,4847.239h1.076v1.219h1.175v-1.219h1.081v3.481h-1.081v-1.408h-1.175v1.408h-1.076Z" transform="translate(-92.969 -113.512)" fill="#fff"/>
    <path id="Path_444" data-name="Path 444" d="M2640.427,4850.146h-1.222l-.169.573h-1.1l1.309-3.481h1.174l1.308,3.481H2640.6Zm-.223-.755-.384-1.251-.381,1.251Z" transform="translate(-103.29 -113.511)" fill="#fff"/>
    <path id="Path_445" data-name="Path 445" d="M2653.95,4847.239h1.076v2.624h1.68v.857h-2.755Z" transform="translate(-114.684 -113.512)" fill="#fff"/>
    <path id="Path_446" data-name="Path 446" d="M2666.882,4847.239h1.076v2.624h1.679v.857h-2.755Z" transform="translate(-123.886 -113.512)" fill="#fff"/>
    <path id="Path_447" data-name="Path 447" d="M2679.774,4847.239h1.415l.545,2.118.542-2.118h1.415v3.481h-.881v-2.654l-.679,2.654h-.8l-.678-2.654v2.654h-.881Z" transform="translate(-133.058 -113.512)" fill="#fff"/>
    <path id="Path_448" data-name="Path 448" d="M2698.7,4850.146h-1.222l-.17.573h-1.1l1.31-3.481h1.173l1.309,3.481h-1.127Zm-.224-.755-.385-1.251-.38,1.251Z" transform="translate(-144.75 -113.511)" fill="#fff"/>
    <path id="Path_449" data-name="Path 449" d="M2712.269,4850.72v-3.481h1.793a2.584,2.584,0,0,1,.763.086.8.8,0,0,1,.424.317.95.95,0,0,1,.162.563.974.974,0,0,1-.124.5.937.937,0,0,1-.34.34,1.313,1.313,0,0,1-.377.139,1.157,1.157,0,0,1,.28.127,1.18,1.18,0,0,1,.172.185,1.407,1.407,0,0,1,.15.216l.522,1.009h-1.216l-.575-1.063a.826.826,0,0,0-.195-.269.446.446,0,0,0-.263-.081h-.1v1.413Zm1.08-2.071h.454a1.5,1.5,0,0,0,.286-.048.278.278,0,0,0,.174-.108.352.352,0,0,0-.039-.461.646.646,0,0,0-.4-.09h-.473Z" transform="translate(-156.179 -113.511)" fill="#fff"/>
    <path id="Path_450" data-name="Path 450" d="M2727.037,4847.239h1.076v1.315l1.127-1.315h1.431l-1.271,1.313,1.328,2.168H2729.4l-.734-1.432-.556.582v.85h-1.076Z" transform="translate(-166.687 -113.512)" fill="#fff"/>
    <rect id="Rectangle_27" data-name="Rectangle 27" width="80.264" height="80.264" transform="translate(2493.523 4688.465)" fill="none"/>
  </g>
</svg>
