<svg xmlns="http://www.w3.org/2000/svg" width="112.873" height="112.714" viewBox="0 0 112.873 112.714">
  <g id="Group_1008" data-name="Group 1008" transform="translate(-2493.136 -4688.136)">
    <path id="Path_435" data-name="Path 435" d="M2605.829,4726.6a57.583,57.583,0,0,0-3.987-15.652,30.854,30.854,0,0,0-8.54-11.756,37.374,37.374,0,0,0-14.733-7.17,91.918,91.918,0,0,0-20.008-2.646,175.443,175.443,0,0,0-22.452.429,75.575,75.575,0,0,0-15.692,2.829,36.083,36.083,0,0,0-12.348,6.345c-5.015,4.087-8.124,9.424-10.134,15.471a66.9,66.9,0,0,0-3.062,15.646c-.425,5.149-.565,10.324-.831,15.491a176.647,176.647,0,0,0,1.347,19.721c.877,6.147,2.292,12.133,5.221,17.666a29.433,29.433,0,0,0,6.854,8.673c4.767,4.09,10.409,6.363,16.434,7.8a96.807,96.807,0,0,0,18.508,2.3,140.48,140.48,0,0,0,25.887-1.036,67.316,67.316,0,0,0,16-3.9,32,32,0,0,0,14.092-10.547,37.894,37.894,0,0,0,6.226-14.009,81.8,81.8,0,0,0,2.024-15.439,176.633,176.633,0,0,0-.81-30.22" transform="translate(-0.907 -1.065)" fill="#fff"/>
    <path id="Path_436" data-name="Path 436" d="M2562.454,4797.153a5.107,5.107,0,0,1-1.431,3.143,10.02,10.02,0,0,1-4.335,2.778,16.331,16.331,0,0,1-5.64,1.065,11.032,11.032,0,0,1-4.337-.7,60.029,60.029,0,0,1-4.6,6.257,9.883,9.883,0,0,1-7.239,3.029,5.092,5.092,0,0,1-3.579-1.107,3.747,3.747,0,0,1-1.192-2.876,6.761,6.761,0,0,1,1.964-4.6,7.033,7.033,0,0,1,5.443-2.384,4.008,4.008,0,0,1,2.273.618,2.1,2.1,0,0,1,.926,1.879,3.482,3.482,0,0,1-.953,2.02q-.955,1.178-1.179,1.18c-.038,0-.056-.037-.056-.112a.373.373,0,0,1,.084-.225,4.4,4.4,0,0,0,.9-2.428,2.158,2.158,0,0,0-.687-1.71,2.48,2.48,0,0,0-1.7-.6,5.344,5.344,0,0,0-4.167,2.146,6.725,6.725,0,0,0-1.81,4.336,3.05,3.05,0,0,0,.883,2.272,3.768,3.768,0,0,0,2.736.869,8.32,8.32,0,0,0,5.921-2.33,16.6,16.6,0,0,0,2.891-3.929l2.442-4.4a63.98,63.98,0,0,0,4.18-8.587h-.5a35.814,35.814,0,0,0-7.6.829,14.268,14.268,0,0,0-5.781,2.372,1.724,1.724,0,0,0-.842,1.26,1.126,1.126,0,0,0,.659,1,3.056,3.056,0,0,0,1.557.379,9.083,9.083,0,0,0,2.232-.351,4.939,4.939,0,0,0,2.006-.938.855.855,0,0,1,.392-.226q.225,0,.085.226a6.136,6.136,0,0,1-3.06,1.766,8.928,8.928,0,0,1-2.5.366,3.458,3.458,0,0,1-2.021-.547,1.719,1.719,0,0,1-.786-1.487,2.683,2.683,0,0,1,1.01-1.894q1.908-1.851,6.818-2.75a46.226,46.226,0,0,1,8-.615h.758a1.789,1.789,0,0,1,1.122-.534c.337,0,.505.13.505.393a.854.854,0,0,1-.028.2,22.2,22.2,0,0,1,7.043,1.46q3.2,1.343,3.2,3.506m-1.319-.281q0-1.767-2.863-2.89a20.145,20.145,0,0,0-6.258-1.178l-.9,2.806a48.933,48.933,0,0,1-4.1,7.35,5.08,5.08,0,0,0,.954.31,10.916,10.916,0,0,0,1.74.195,16.453,16.453,0,0,0,4.91-.882,12.374,12.374,0,0,0,4.645-2.58q1.864-1.7,1.865-3.13" transform="translate(-22.476 -62.317)" fill="#231f20"/>
    <path id="Path_437" data-name="Path 437" d="M2606.426,4819.863q-2.1,0-2.1-2.33a6.464,6.464,0,0,1,.615-2.581,11.483,11.483,0,0,1,1.347-2.357,2.03,2.03,0,0,1-.365.027c-.448,0-.823-.319-1.122-.952l-2.076,2.688c-1.16,1.445-1.834,2.163-2.021,2.163-.093,0-.139-.037-.139-.111a1.514,1.514,0,0,1,.477-.815,26.282,26.282,0,0,0,3.451-4.8q.645-2.44,1.627-2.44.646,0,.646.561a2.555,2.555,0,0,1-.7,1.431l-.674.9q0,.59.871.59a2.24,2.24,0,0,0,1.122-.365l.729-.45a.863.863,0,0,1,.281-.027.683.683,0,0,1,.476.281.5.5,0,0,1,.169.506l-1.937,2.44q-1.794,2.3-1.8,3.634t1.235,1.334a5.814,5.814,0,0,0,3.17-1.375,13.6,13.6,0,0,0,2.05-1.825,6.161,6.161,0,0,1,.955-1.012q.194,0,.194.212a.8.8,0,0,1-.251.492l-.9,1.007a16.258,16.258,0,0,1-1.684,1.517,6.736,6.736,0,0,1-3.649,1.657" transform="translate(-64.626 -72.344)" fill="#231f20"/>
    <path id="Path_438" data-name="Path 438" d="M2628.478,4823.8a1.731,1.731,0,0,1-.562-.084q-1.794-.505-1.795-2.02,0-1.964,2.469-4.545t4.434-2.581a1.549,1.549,0,0,1,1.052.35,1.091,1.091,0,0,1,.407.856q0,1.572-2.372,3a8.1,8.1,0,0,1-3.859,1.431,1.326,1.326,0,0,1-.392-.053,3.227,3.227,0,0,0-.421,1.6q0,1.458,1.389,1.459t3.607-1.881a17.957,17.957,0,0,0,2.917-2.919c.168-.223.312-.334.435-.334s.182.057.182.169a.954.954,0,0,1-.225.478,17.272,17.272,0,0,1-3.647,3.535,6.639,6.639,0,0,1-3.62,1.543m5.3-8.082c0-.224-.237-.335-.714-.335a3.823,3.823,0,0,0-2.034,1.093,12.579,12.579,0,0,0-2.752,3.059,1.138,1.138,0,0,0,.366.055,5.869,5.869,0,0,0,2.849-1.135,5.028,5.028,0,0,0,2.231-2.483.705.705,0,0,0,.055-.253" transform="translate(-79.915 -76.062)" fill="#231f20"/>
    <path id="Path_439" data-name="Path 439" d="M2650.658,4819.385a3.889,3.889,0,0,1-2.007.476,2.2,2.2,0,0,1-1.823-.784,6.827,6.827,0,0,1-1.08-2.5q-.506.505-.7.5c-.094,0-.141-.063-.141-.2a.454.454,0,0,1,.141-.335,41.767,41.767,0,0,1,3.142-3.311l3.536-3.313c1.01-.952,1.609-1.431,1.8-1.431.6,0,.9.225.9.675a1.01,1.01,0,0,1-.268.656c-.177.218-.307.384-.392.508s-.174.236-.267.351a13.338,13.338,0,0,0-1.025,3.592q-.519,2.722-.8,3.787,2.33-.028,4.8-3.031c.186-.186.327-.278.42-.278s.14.06.14.181a.894.894,0,0,1-.252.491,11.348,11.348,0,0,1-3.031,2.667,9.21,9.21,0,0,1-2.188.7Zm-3.788-3.115a2.057,2.057,0,0,0,.632,1.558,2.169,2.169,0,0,0,2.622.293c.375-.2.744-1.067,1.109-2.581a23.979,23.979,0,0,0,.659-4.013l.112-.955a27.624,27.624,0,0,0-3.3,2.977q-1.753,1.824-1.811,2.411a1.991,1.991,0,0,0-.027.31" transform="translate(-91.151 -72.427)" fill="#231f20"/>
    <path id="Path_440" data-name="Path 440" d="M2673.242,4823.8a1.718,1.718,0,0,1-.561-.084q-1.8-.505-1.8-2.02,0-1.964,2.468-4.545t4.434-2.581a1.547,1.547,0,0,1,1.053.35,1.2,1.2,0,0,1,.407.955,2.6,2.6,0,0,1-.365,1.26,1.178,1.178,0,0,1-1.095.66q-.729,0-.729-.448a2.159,2.159,0,0,1,.38-.941,5.809,5.809,0,0,0,.378-.67c0-.032-.029-.044-.084-.044a4.965,4.965,0,0,0-2.146,1.125,9.427,9.427,0,0,0-1.866,1.738l-1.095,1.6a3.157,3.157,0,0,0-.405,1.064,4.936,4.936,0,0,0-.126.926,1.134,1.134,0,0,0,.349.7,1.273,1.273,0,0,0,1,.392,6.164,6.164,0,0,0,3.479-1.643,17.878,17.878,0,0,0,3.2-3.127.432.432,0,0,1,.338-.17c.131,0,.2.04.2.111a.489.489,0,0,1-.14.282,16.675,16.675,0,0,1-3.689,3.578,6.689,6.689,0,0,1-3.578,1.53" transform="translate(-106.693 -76.062)" fill="#231f20"/>
    <path id="Path_441" data-name="Path 441" d="M2698.113,4816.322q0,.981-1.88,3.283-2.218,2.723-3.789,2.723h-.449a1.28,1.28,0,0,1-1.15-.759,2.161,2.161,0,0,1-.337-1.176q0-1.687,2.456-4.731t3.971-3.044q1.43,0,1.429,1.517a4.73,4.73,0,0,1-.14,1.008c.019.057.2.084.533.084a3.9,3.9,0,0,0,1.543-.531q-.029.478-2.216,1.375a1.052,1.052,0,0,1,.028.252m-1.825-1.458q-.953,0-2.708,2.245t-1.754,3.309c0,.713.225,1.066.674,1.066q1.207,0,3.059-2.187t1.852-3.145a4.047,4.047,0,0,1-1.123-1.288" transform="translate(-118.43 -74.892)" fill="#231f20"/>
    <path id="Path_442" data-name="Path 442" d="M2713.8,4814.071q.758,0,.757.59a.762.762,0,0,1-.082.337,19.868,19.868,0,0,0-3.032,5.3q6.539-6.536,7.941-6.538a1.249,1.249,0,0,1,.253-.028c.523,0,.786.235.786.7a.742.742,0,0,1-.056.281q-.057.138-1.123,1.516a25.923,25.923,0,0,0-2.091,2.806,4.492,4.492,0,0,0-.855,2.245c0,.6.131.9.393.9q1.234,0,4.292-3.4a2.281,2.281,0,0,0,.2-.252c.281-.337.449-.506.506-.506s.083.1.083.282a1.28,1.28,0,0,1-.394.729q-3.479,3.957-4.938,3.956-1.375,0-1.375-1.515a7.237,7.237,0,0,1,1.121-3.48l1.8-2.918a21.871,21.871,0,0,0-3.4,3.073q-1.487,1.669-2.707,3.241t-1.418,1.572a.753.753,0,0,1-.659-.352,1.507,1.507,0,0,1-.239-.868,3.89,3.89,0,0,1,.365-1.392q.365-.868.926-2.1l-1.684,1.767c-.411.414-.669.618-.772.618s-.154-.062-.154-.181a.63.63,0,0,1,.223-.409,23.38,23.38,0,0,0,1.8-1.991q.728-.957,3-3.649a.694.694,0,0,1,.532-.337" transform="translate(-129.041 -75.56)" fill="#231f20"/>
    <path id="Path_443" data-name="Path 443" d="M2623.431,4847.239h1.5v1.7h1.636v-1.7h1.505v4.849h-1.505v-1.961h-1.636v1.961h-1.5Z" transform="translate(-78.306 -95.602)" fill="#231f20"/>
    <path id="Path_444" data-name="Path 444" d="M2641.4,4851.29h-1.7l-.236.8h-1.53l1.823-4.85h1.635l1.821,4.85h-1.569Zm-.311-1.053-.535-1.741-.531,1.741Z" transform="translate(-86.983 -95.602)" fill="#231f20"/>
    <path id="Path_445" data-name="Path 445" d="M2653.949,4847.239h1.5v3.655h2.339v1.194h-3.838Z" transform="translate(-96.562 -95.602)" fill="#231f20"/>
    <path id="Path_446" data-name="Path 446" d="M2666.882,4847.239h1.5v3.655h2.339v1.194h-3.838Z" transform="translate(-104.298 -95.602)" fill="#231f20"/>
    <path id="Path_447" data-name="Path 447" d="M2679.774,4847.239h1.971l.76,2.95.755-2.95h1.97v4.849H2684v-3.7l-.946,3.7h-1.111l-.944-3.7v3.7h-1.228Z" transform="translate(-112.009 -95.602)" fill="#231f20"/>
    <path id="Path_448" data-name="Path 448" d="M2699.675,4851.29h-1.7l-.237.8h-1.531l1.824-4.85h1.634l1.823,4.85h-1.57Zm-.311-1.053-.536-1.741-.53,1.741Z" transform="translate(-121.839 -95.602)" fill="#231f20"/>
    <path id="Path_449" data-name="Path 449" d="M2712.269,4852.088v-4.85h2.5a3.587,3.587,0,0,1,1.063.12,1.111,1.111,0,0,1,.591.441,1.327,1.327,0,0,1,.226.786,1.351,1.351,0,0,1-.173.7,1.3,1.3,0,0,1-.473.474,1.81,1.81,0,0,1-.525.192,1,1,0,0,1,.63.435,1.954,1.954,0,0,1,.209.3l.727,1.406h-1.694l-.8-1.482a1.146,1.146,0,0,0-.271-.374.616.616,0,0,0-.367-.113h-.133v1.969Zm1.5-2.886h.632a2.138,2.138,0,0,0,.4-.066.39.39,0,0,0,.243-.151.446.446,0,0,0,.095-.281.45.45,0,0,0-.149-.361.907.907,0,0,0-.56-.125h-.659Z" transform="translate(-131.448 -95.602)" fill="#231f20"/>
    <path id="Path_450" data-name="Path 450" d="M2727.037,4847.239h1.5v1.832l1.571-1.832h1.993l-1.771,1.83,1.849,3.02h-1.844l-1.022-1.994-.775.811v1.183h-1.5Z" transform="translate(-140.282 -95.602)" fill="#231f20"/>
    <rect id="Rectangle_27" data-name="Rectangle 27" width="111.796" height="111.796" transform="translate(2493.675 4688.594)" fill="none"/>
  </g>
</svg>
