<svg xmlns="http://www.w3.org/2000/svg" width="19" height="18.998" viewBox="0 0 19 18.998">
  <path id="Path_1361" data-name="Path 1361" d="M9,3a1,1,0,0,1,.877.519l.051.11,2,5a1,1,0,0,1-.313,1.16l-.1.068-1.674,1,.063.1A10,10,0,0,0,13.036,14.1l.1.062,1.005-1.672a1,1,0,0,1,1.113-.453l.115.039,5,2a1,1,0,0,1,.622.807L21,15v4a3.01,3.01,0,0,1-3.06,3A17.009,17.009,0,0,1,2,6,3,3,0,0,1,4.824,3L5,3H9Z" transform="translate(-2 -3)" fill="#fff" stroke="#000" stroke-linecap="round" stroke-linejoin="round"/>
</svg>
