<svg xmlns="http://www.w3.org/2000/svg" width="25.93" height="25.93" viewBox="0 0 25.93 25.93">
  <path id="icons8-instagram" d="M10.2,3A7.2,7.2,0,0,0,3,10.2V21.727a7.2,7.2,0,0,0,7.2,7.2H21.727a7.2,7.2,0,0,0,7.2-7.2V10.2a7.2,7.2,0,0,0-7.2-7.2ZM24.608,5.881a1.441,1.441,0,1,1-1.441,1.441A1.441,1.441,0,0,1,24.608,5.881ZM15.965,8.762a7.2,7.2,0,1,1-7.2,7.2A7.2,7.2,0,0,1,15.965,8.762Zm0,2.881a4.322,4.322,0,1,0,4.322,4.322,4.322,4.322,0,0,0-4.322-4.322Z" transform="translate(-3 -3)" fill="#fff"/>
</svg>
