<svg id="Group_1012" data-name="Group 1012" xmlns="http://www.w3.org/2000/svg" width="24" height="24" viewBox="0 0 24 24">
  <path id="Path_1362" data-name="Path 1362" d="M0,0H24V24H0Z" fill="none"/>
  <path id="Path_1363" data-name="Path 1363" d="M22,7.535V17a3,3,0,0,1-2.824,3L19,20H5a3,3,0,0,1-3-2.824L2,17V7.535l9.445,6.3.116.066a1,1,0,0,0,.878,0l.116-.066L22,7.535Z" fill="#fff" stroke="#000" stroke-linecap="round" stroke-linejoin="round"/>
  <path id="Path_1364" data-name="Path 1364" d="M19,4a3,3,0,0,1,2.555,1.427L12,11.8,2.445,5.427A3,3,0,0,1,4.8,4.007L5,4Z" fill="#fff" stroke="#000" stroke-linecap="round" stroke-linejoin="round"/>
</svg>
