<svg xmlns="http://www.w3.org/2000/svg" width="25.1" height="25.1" viewBox="0 0 25.1 25.1">
  <path id="icons8-linkedin" d="M25.311,3H5.789A2.788,2.788,0,0,0,3,5.789V25.311A2.788,2.788,0,0,0,5.789,28.1H25.311A2.788,2.788,0,0,0,28.1,25.311V5.789A2.788,2.788,0,0,0,25.311,3ZM11.367,22.522H7.848V12.761h3.518ZM9.545,10.972A1.667,1.667,0,0,1,7.752,9.3,1.7,1.7,0,0,1,9.664,7.625,1.667,1.667,0,0,1,11.457,9.3,1.7,1.7,0,0,1,9.545,10.972Zm14.371,11.55H20.511V17.187c0-1.475-.908-1.816-1.248-1.816s-1.475.227-1.475,1.816v5.335H14.27V12.761h3.518v1.362c.453-.795,1.361-1.362,3.064-1.362s3.065,1.362,3.065,4.426Z" transform="translate(-3 -3)" fill="#fff"/>
</svg>
